<?xml version="1.0" encoding="UTF-8" standalone="no"?>
<!-- Created with Inkscape (http://www.inkscape.org/) -->

<svg
   version="1.1"
   id="svg2"
   width="196"
   height="196"
   viewBox="0 0 196 196"
   sodipodi:docname="artwork.svg"
   inkscape:version="1.4.3 (0d15f75042, 2025-12-25)"
   inkscape:export-filename="artwork.png"
   inkscape:export-xdpi="45"
   inkscape:export-ydpi="45"
   xmlns:inkscape="http://www.inkscape.org/namespaces/inkscape"
   xmlns:sodipodi="http://sodipodi.sourceforge.net/DTD/sodipodi-0.dtd"
   xmlns="http://www.w3.org/2000/svg"
   xmlns:svg="http://www.w3.org/2000/svg">
  <defs
     id="defs6">
    <rect
       x="103.17575"
       y="17.842424"
       width="40.727268"
       height="46.15758"
       id="rect485" />
  </defs>
  <sodipodi:namedview
     id="namedview4"
     pagecolor="#ffffff"
     bordercolor="#666666"
     borderopacity="1.0"
     inkscape:showpageshadow="2"
     inkscape:pageopacity="0.0"
     inkscape:pagecheckerboard="0"
     inkscape:deskcolor="#d1d1d1"
     showgrid="false"
     inkscape:zoom="2.5781251"
     inkscape:cx="82.424239"
     inkscape:cy="97.357572"
     inkscape:window-width="1596"
     inkscape:window-height="841"
     inkscape:window-x="0"
     inkscape:window-y="0"
     inkscape:window-maximized="0"
     inkscape:current-layer="g12">
    <inkscape:page
       x="0"
       y="0"
       id="page8"
       width="196"
       height="196"
       margin="0"
       bleed="0" />
  </sodipodi:namedview>
  <g
     id="g10"
     inkscape:groupmode="layer"
     inkscape:label="Page 1"
     transform="matrix(1.3333333,0,0,-1.3333333,0,196)">
    <g
       id="g12"
       transform="scale(0.1)">
      <path
         d="M 20,20 H 1460 V 1460 H 20 Z"
         style="fill:#00ff00;fill-opacity:1;fill-rule:nonzero;stroke:none"
         id="path14" />
      <path
         d="M 1410,735.00002 C 1410,362.21102 1107.79,60.000018 735.00002,60.000018 362.21102,60.000018 60.000018,362.21102 60.000018,735.00002 60.000018,1107.79 362.21102,1410 735.00002,1410 1107.79,1410 1410,1107.79 1410,735.00002"
         style="fill:#0000ff;fill-opacity:1;fill-rule:nonzero;stroke:none"
         id="path16" />
      <g
         id="g1"
         transform="translate(118.12496,-4.5724512)">
        <path
           id="path2962"
           fill="#010101"
           d="m 584.85003,959.35296 c -10.995,2.85 -21.285,11.535 -25.425,21.495 -3.21,7.68 -2.955,22.93504 0.495,30.42004 6.15,13.365 18.39,20.82 33.975,20.7 9.54,-0.075 21.435,-4.755 26.4,-10.41 4.395,-5.01 8.955,-15.6 9.78,-22.77004 1.56,-13.59 -8.955,-31.98 -21.225,-37.11 -6.255,-2.61 -18.375,-3.78 -24,-2.325 z m 343.00501,1.455 c -8.88,3.15 -18.345,11.445 -22.11,19.38 -1.815,3.825 -2.31,8.325 -1.92,17.37 0.465,11.11504 0.975,12.85504 5.67,19.36504 15.69,21.795 50.61,19.755 62.475,-3.645 5.505,-10.875 6.12,-19.62004 2.13,-30.22504 -7.425,-19.68 -26.97,-29.085 -46.245,-22.245 z m -409.75501,37.26 c -5.34,1.905 -6,5.16004 -6,29.70004 0,16.98 0.555,24.945 1.875,26.73 1.455,1.995 17.205,5.145 72.24,14.46 l 70.38,11.91 33.94501,33.825 33.96,33.825 h 195.585 l 44.625,-35.37 c 24.555,-19.47 46.15496,-37.05 48.01496,-39.09 3.285,-3.615 3.375,-4.56 3.375,-37.08 0,-40.15504 0.345,-39.21004 -14.34,-39.21004 h -10.07996 l -2.52,9.00004 c -3.555,12.75 -6.345,17.385 -15.375,25.515 -11.55,10.395 -18.765,13.185 -34.185,13.185 -15.27,0 -23.37,-3.045 -33.93,-12.75 -7.365,-6.75 -15.555,-21.57 -15.6,-28.2 -0.045,-7.90504 6.255,-7.54504 -123.66,-7.12504 l -121.26001,0.375 -2.505,9.00004 c -3.54,12.735 -6.33,17.37 -15.36,25.515 -11.31,10.185 -18.825,13.14 -33.435,13.185 -14.85,0.03 -22.56,-2.7 -33.135,-11.745 -8.445,-7.215 -17.115,-21.975 -17.115,-29.145 0,-2.175 -0.81,-4.77004 -1.8,-5.76004 -1.8,-1.785 -19.245,-2.355 -23.7,-0.75 z m 294.00001,73.92004 c 1.83,1.155 2.325,6.405 2.715,28.395 0.3,17.61 -0.105,28.05 -1.185,30.06 -1.59,3 -2.82,3.075 -45.12,3.075 h -43.485 l -26.22,-25.095 c -21.315,-20.415 -26.205,-25.86 -26.205,-29.175 0,-8.7 0.27,-8.73 71.955,-8.7 38.43,0.015 66.21,0.6 67.545,1.44 z m 131.13,2.925 c 2.505,2.355 3.87,5.235 3.87,8.19 0,3.885 -3.42,7.98 -22.935,27.495 l -22.935,22.92 h -35.445 c -19.5,0 -36.51,-0.405 -37.815,-0.9 -2.055,-0.795 -2.37,-4.845 -2.37,-29.7 0,-20.85 0.51,-29.31 1.845,-30.645 1.425,-1.425 14.76,-1.755 56.88,-1.425 l 55.035,0.42 z"
           style="fill:#ececec;stroke-width:1.5" />
        <path
           id="path3206"
           fill="#010101"
           d="m 281.06852,969.94296 c -7.2915,1.935 -18.8955,12.27 -22.365,19.905 -5.5524,12.22504 -2.466,31.29004 6.651,41.07004 12.981,13.95 39.17851,14.355 52.55701,0.84 14.469,-14.61 14.658,-37.99504 0.423,-52.23004 -9.9495,-9.96 -23.13,-13.35 -37.26601,-9.585 z m 158.37001,0.345 c -12.855,4.02 -22.95,16.185 -25.275,30.43504 -2.355,14.52 8.595,33.465 22.425,38.745 10.5,4.005 25.905,2.58 34.065,-3.15 3.525,-2.475 8.415,-7.38 10.89,-10.905 5.73,-8.145 7.17,-23.55 3.18,-34.00504 -6.765,-17.7 -26.625,-26.955 -45.285,-21.12 z m -76.4535,24.9 c -16.8525,1.77 -23.2035,6.33004 -26.9265,19.30504 -3.4245,11.955 -8.694,20.28 -16.6935,26.385 -7.0365,5.37 -18.7545,9.78 -26.01151,9.78 -4.884,0 -7.4685,4.845 -7.4685,14.025 0,8.16 5.634,13.95 19.84201,20.4 11.3745,5.145 13.962,5.55 15.1995,2.325 0.4755,-1.245 1.446,-2.25 2.1555,-2.25 0.711,0 11.646,7.755 24.303,17.25 30.978,23.22 33.4005,23.205 51.0585,-0.3 5.82,-7.725 10.92,-14.955 11.34,-16.065 0.72,-1.89 -17.01,-15.975 -19.92,-15.825 -0.675,0.03 -6.1065,6.78 -12.0675,15 -6.72,9.255 -11.85,14.925 -13.5,14.925 -3.0885,-0.015 -37.704,-26.205 -38.9625,-29.49 -0.9735,-2.535 7.227,-11.67 13.3515,-14.88 5.7645,-3.015 9.495,-2.625 12.072,1.26 2.1045,3.165 3.4305,3.405 22.308,3.855 l 20.0685,0.495 10.83,8.13 c 5.955,4.485 11.385,8.145 12.075,8.145 0.675,0 3.57,-3.69 6.42,-8.19 l 5.175,-8.175 18.195,-0.075 c 19.35,-0.075 22.8,-1.275 20.88,-7.32 -0.78,-2.49 -2.715,-2.97 -13.995,-3.54 -15.735,-0.795 -24.465,-4.26 -33.09,-13.14 -9.57,-9.855 -12.975,-18.24 -12.975,-31.935 l -0.015,-11.62504 -16.5,0.195 c -9.0735,0.12 -21.291,0.705 -27.1485,1.335 z m -12.039,125.16004 c -1.512,3.945 0.252,5.82 7.029,7.455 6.3345,1.515 6.6825,1.89 7.1385,7.44 0.567,6.93 -1.455,8.73 -8.3535,7.47 -5.469,-1.005 -6.015,0.195 -2.217,4.89 3.732,4.605 8.2755,6.555 15.318,6.555 12.492,0 20.1075,-7.905 19.2315,-19.965 l -0.4575,-6.285 h -9.78 c -8.4735,0 -10.794,-0.66 -17.3805,-4.875 -8.6325,-5.535 -9.36,-5.73 -10.5285,-2.685 z"
           style="fill:#ececec;stroke-width:1.5" />
        <path
           id="path3513"
           fill="#010101"
           d="m 235.08452,326.63794 c -11.6145,4.65 -18.2175,14.475 -18.2175,27.105 0,16.935 9.765,27.105 26.835,27.96 11.769,0.57 17.8935,-2.04 24.684,-10.53 5.148,-6.45 6.9765,-18.315 4.1415,-26.91 -4.689,-14.205 -23.67,-23.145 -37.443,-17.625 z m 239.04001,1.23 c -6.99,3.24 -13.395,9.63 -15.66,15.63 -3.42,9.045 -0.825,22.905 5.595,30.015 7.08,7.83 23.16,10.92 33.765,6.495 6.6,-2.76 14.07,-11.64 16.08,-19.125 6.18,-22.95 -18.075,-43.065 -39.78,-33.015 z m 114,0 c -6.99,3.24 -13.395,9.63 -15.66,15.63 -3.42,9.045 -0.825,22.905 5.595,30.015 7.08,7.83 23.16,10.92 33.765,6.495 6.6,-2.76 14.07,-11.64 16.08,-19.125 6.18,-22.95 -18.075,-43.065 -39.78,-33.015 z m 173.25001,-0.45 c -18.225,7.905 -23.82,31.71 -10.815,46.095 11.34,12.54 35.61,11.13 45.03,-2.64 7.905,-11.535 7.725,-23.55 -0.51,-34.35 -8.085,-10.575 -21.765,-14.28 -33.705,-9.105 z m 151.5,0 c -18.225,7.905 -23.82,31.71 -10.815,46.095 7.815,8.655 25.695,11.31 36.24,5.385 6.66,-3.75 12.99,-12.945 14.31,-20.835 3.6,-21.255 -19.785,-39.3 -39.735,-30.645 z m -717.51002,30.105 c -0.5505,0.555 -1.0005,14.715 -1.0005,31.47 v 30.48001 l 10.7355,28.665 c 8.1,21.63 11.5065,28.995 13.875,30 3.3885,1.425 74.403,5.97 76.26451,4.875 0.618,-0.36 1.125,-22.53 1.125,-49.275 0,-46.51501 0.1245,-48.67501 2.901,-50.16001 1.89,-1.005 29.352,-1.545 78.807,-1.545 h 75.915 l -3.69,-6.375 c -2.025,-3.51 -4.44,-9.255 -5.37,-12.75 l -1.68,-6.375 H 287.90702 l -2.592,8.22 c -3.5355,11.22 -10.7145,20.145 -20.5095,25.53 -7.0785,3.88501 -9.729,4.48501 -19.446,4.45501 -9.249,-0.03 -12.621,-0.75 -18.957,-4.06501 -10.2525,-5.355 -17.6655,-14.295 -20.952,-25.275 -2.172,-7.245 -3.249,-8.865 -5.8755,-8.865 -1.7685,0 -3.666,0.45 -4.215,0.99 z m 43.9065,63.51001 c 15.2115,1.635 28.224,3.525 28.917,4.215 0.693,0.69 1.071,11.34 0.843,23.64 l -0.417,22.395 -9.933,0.435 c -14.301,0.63 -37.2,-1.935 -39.714,-4.44 -2.3415,-2.34 -17.058,-39.66 -17.085,-43.32 -0.0255,-3.24 3.0075,-5.94 6.657,-5.91 1.6905,0.015 15.5205,1.365 30.732,2.985 z m 287.56501,-58.86001 c -0.495,3.105 -2.925,8.85 -5.4,12.75 l -4.515,7.11 h 51.06 l -3.69,-6.375 c -2.025,-3.51 -4.44,-9.255 -5.37,-12.75 l -1.68,-6.375 h -29.505 z m 114,0 c -0.495,3.105 -2.925,8.85 -5.4,12.75 l -4.515,7.11 h 55.57501 l -0.435,-9.33 -0.45,-9.315 -10.5,-3.36 c -6.91501,-2.205 -14.41501,-3.375 -21.93001,-3.42 l -11.445,-0.075 z m 63.01501,2.85 c -0.54,0.555 -0.99,4.605 -0.99,9 v 8.01 h 18.75 c 10.305,0 18.75,-0.405 18.75,-0.9 0,-0.495 -1.335,-2.76 -2.97,-5.055 -1.62,-2.28 -3.63,-5.94 -4.455,-8.1 -1.47,-3.855 -1.83,-3.945 -14.79,-3.945 -7.305,0 -13.74,0.45 -14.295,0.99 z m 107.205,3.57 c -0.87,2.52 -3.015,6.57 -4.74,9 l -3.165,4.44 h 44.355 c 24.39,0 44.355,-0.405 44.355,-0.9 0,-0.495 -1.335,-2.76 -2.97,-5.055 -1.62,-2.28 -3.63,-5.94 -4.455,-8.1 l -1.5,-3.945 h -70.29 z m 151.5,0 c -0.87,2.52 -3.015,6.57 -4.74,9 l -3.165,4.44 h 37.71 v -18 h -28.215 z m -643.69501,86.17501 v 59.265 h 367.53001 l -0.39,-58.875 -0.39,-58.875 -183.37501,-0.39 -183.375,-0.375 -0.003,59.25 z m 402.99001,-58.245 c -0.54,0.555 -0.99,27.225 -0.99,59.25 v 58.26 h 271.5 v -118.5 h -134.76 c -74.1,0 -135.195,0.45 -135.75,0.99 z"
           style="fill:#ececec;stroke-width:1.5" />
        <path
           id="path3485"
           fill="#010101"
           d="m 759.90004,535.66295 c -14.835,5.07 -21.285,14.355 -21.285,30.66 0,8.385 0.63,10.56 4.875,16.815 6.375,9.42 14.055,13.365 25.995,13.38 18.195,0.03 30.63,-12.585 30.63,-31.095 0,-17.745 -8.73,-27.45 -28.5,-31.665 -2.07,-0.435 -7.335,0.42 -11.715,1.905 z m 222.72,-0.69 c -8.82,2.325 -19.86,12.495 -22.02,20.28 -3.165,11.37 -0.825,22.77 6.315,30.9 5.7,6.495 10.44,9.045 19.32,10.365 9.45,1.425 18.37496,-1.335 25.69496,-7.935 7.62,-6.885 10.185,-12.81 10.185,-23.55 0,-13.65 -8.04,-25.395 -19.845,-28.98 -9.23996,-2.82 -12.41996,-2.985 -19.64996,-1.08 z m -274.68,34.71 c -2.265,2.25 -2.475,5.91 -1.95,33.45 l 0.585,30.9 12.27,33.615 c 6.75,18.48 12.27,35.505 12.27,37.815 0,2.685 -1.095,4.8 -3,5.82 -2.31,1.245 -3,3.15 -3,8.31001 v 6.69 h 150.09 c 100.08,0 151.06496,-0.51 152.98496,-1.545 4.68,-2.49 7.215,-9.04501 17.31,-44.80501 l 9.585,-33.9 0.015,-34.095 0.015,-34.095 -4.155,-4.65 c -2.94,-3.285 -5.625,-4.71 -9.27,-4.89 -4.815,-0.255 -5.205,0.09 -6.375,5.565 -4.86,22.77 -25.47,38.4 -48.22496,36.57 -10.38,-0.84 -16.845,-3.63 -25.53,-11.04 -7.815,-6.675 -9.81,-9.765 -13.725,-21.42 l -3.345,-9.945 h -130.05 l -1.065,6.24 c -4.2,24.645 -30,41.07 -55.065,35.07 -7.02,-1.695 -19.2,-9.345 -23.85,-14.985 -4.035,-4.89 -8.445,-14.565 -9.255,-20.325 -0.84,-5.925 -0.93,-6 -7.785,-6.45 -4.98,-0.315 -7.665,0.27 -9.48,2.1 z m 83.76,73.41 c 3.54,3.54 4.155,9.915 3.645,37.635 -0.36,18.93 -1.02,26.25 -2.535,28.08 -1.755,2.115 -5.535,2.475 -25.5,2.46 -12.9,-0.015 -24.27,-0.54 -25.26,-1.185 -2.25,-1.425 -4.26,-6.195 -14.685,-34.92 -4.545,-12.495 -8.25,-24 -8.25,-25.56 0,-1.545 1.35,-4.17 3,-5.82 2.805,-2.805 4.995,-3 35.145,-3 26.865,0 32.52,0.39 34.44,2.31 z m 77.67,0.18 c 1.53,1.395 2.73,4.515 2.73,7.125 -0.015,6.495 -15.78,58.02 -18.225,59.565 -1.11,0.705 -11.505,1.29 -23.1,1.305 -15.87,0.015 -21.81,-0.51 -24,-2.115 -2.715,-1.98 -2.91,-4.155 -2.91,-32.085 0,-27.36 0.24,-30.24 2.85,-33.12 2.715,-3 4.29,-3.165 31.38,-3.165 24.45,0 28.92,0.36 31.275,2.49 z m 81.39,-0.12 c 1.29,1.29 2.355,4.5 2.355,7.125 0,5.76 -14.16,55.935 -16.62,58.905 -1.395,1.68 -7.68,2.1 -30.78,2.1 h -29.04 l -2.43,-3.705 c -2.31,-3.54 -2.04,-5.115 5.955,-33.375 5.235,-18.465 9.36,-30.375 10.935,-31.545 1.815,-1.335 10.38,-1.875 29.91,-1.875 22.86,0 27.735,0.39 29.715,2.37 z m 76.10996,0.12 c 4.095,3.705 3.435,9.42 -4.11,35.73 -6.99,24.315 -8.82,29.19 -11.745,31.14 -0.915,0.6 -14.08496,1.11 -29.27996,1.125 -23.64,0.015 -28.035,-0.345 -30.375,-2.46 -1.515,-1.365 -2.73,-3.9 -2.73,-5.625 0.06,-6.51 16.38,-58.62 18.96,-60.495 1.86,-1.365 10.185,-1.905 29.565,-1.905 22.99496,0 27.37496,0.375 29.71496,2.49 z"
           style="fill:#ececec;stroke-width:1.5" />
        <path
           id="path3481"
           fill="#010101"
           d="m 200.32502,541.66295 c -3.396,1.53 -8.1045,5.325 -10.4625,8.415 -3.5265,4.635 -4.377,7.395 -4.7805,15.54 -0.585,11.805 2.0265,17.895 10.5975,24.75 4.656,3.72 7.3845,4.65 15.1245,5.13 12.384,0.795 20.3205,-3.045 26.523,-12.825 15.5055,-24.45 -10.3545,-53.115 -37.002,-41.01 z m 241.68001,-0.735 c -5.655,2.52 -13.575,10.785 -15.66,16.335 -2.415,6.39 -1.86,16.05 1.32,23.055 6,13.215 25.245,19.53 38.64,12.705 16.605,-8.475 21.435,-27.51 10.725,-42.3 -7.575,-10.455 -23.565,-14.94 -35.025,-9.795 z m 114,0 c -5.655,2.52 -13.575,10.785 -15.66,16.335 -2.415,6.39 -1.86,16.05 1.32,23.055 6,13.215 25.245,19.53 38.64,12.705 16.605,-8.475 21.435,-27.51 10.725,-42.3 -7.575,-10.455 -23.565,-14.94 -35.025,-9.795 z m -299.71501,28.98 c -0.351,0.63 -1.758,4.5 -3.126,8.625 -1.368,4.125 -4.8825,10.77 -7.812,14.76 -14.01,19.11 -45.936,20.64 -62.31,3.015 -4.707,-5.07 -9.5085,-14.34 -10.995,-21.225 -0.924,-4.275 -1.6215,-4.905 -5.058,-4.5 l -3.987,0.45 -0.405,31.02 -0.405,31.02 10.7595,28.725 c 8.421,22.5 11.4645,29.01 13.9995,29.97 3.555,1.35 74.361,5.97 76.176,4.965 0.618,-0.345 1.125,-22.38 1.125,-48.99 0,-35.61 0.474,-48.825 1.8,-50.16 1.353,-1.35 20.901,-1.8 78.75601,-1.8 42.315,0 76.95,-0.3 76.95,-0.675 0,-0.375 -1.62,-3.075 -3.6,-5.985 -1.98,-2.91 -4.41,-8.685 -5.4,-12.81 l -1.8,-7.53 h -77.01 c -42.36001,0 -77.30701,0.51 -77.65801,1.125 z m -48.747,64.77 c 14.5965,1.56 27.2535,3.27 28.125,3.81 0.9975,0.615 1.584,9.285 1.584,23.43 0,18.93 -0.3675,22.605 -2.331,23.355 -1.2825,0.495 -12.0915,0.27 -24.021,-0.495 -15.7275,-1.005 -22.302,-1.995 -23.9205,-3.615 -2.43,-2.43 -17.181,-39.675 -17.2095,-43.455 -0.027,-3.45 3.084,-5.925 7.407,-5.895 2.103,0.015 15.768,1.305 30.366,2.865 z m 288.75001,-64.77 c -0.36,0.63 -1.08,3.54 -1.605,6.495 -0.54,2.94 -2.97,8.52 -5.415,12.375 l -4.455,7.005 h 25.47 c 14.01,0 25.47,-0.3 25.47,-0.675 0,-0.375 -1.62,-3.075 -3.6,-5.985 -1.98,-2.91 -4.41,-8.685 -5.4,-12.81 l -1.8,-7.53 h -14.01 c -7.71,0 -14.31,0.51 -14.655,1.125 z m 114.12,-0.195 c -0.42,0.735 -1.2,3.735 -1.725,6.69 -0.54,2.94 -2.97,8.52 -5.415,12.375 l -4.455,7.005 h 55.575 l -0.45,-9.24 -0.435,-9.24 -10.5,-3.6 c -11.025,-3.765 -31.29,-6.255 -32.595,-3.99 z m -323.65501,98.82 v 59.25001 H 654.25803 V 609.28295 H 286.75802 Z"
           style="fill:#ececec;stroke-width:1.5" />
        <path
           id="path3431"
           fill="#010101"
           d="m 200.56502,756.61296 c -12.96,3.375 -20.565,13.65 -20.565,27.81 0,9.525 2.775,16.275 8.76,21.315 14.46,12.165 37.215,8.025 45.06,-8.19 4.905,-10.125 4.335,-20.085 -1.695,-29.085 -7.41,-11.1 -18.48,-15.255 -31.56,-11.85 z m 235.18501,2.115 c -10.005,6.24 -15.75,15.24 -15.735,24.66 0.03,17.895 13.485,30.54 31.02,29.16 18.51,-1.455 31.485,-19.65 25.965,-36.39 -2.34,-7.08 -9.87,-15.63 -16.05,-18.21 -7.11,-2.97 -19.8,-2.58 -25.2,0.78 z m -275.62501,28.815 c -2.355,1.38 -2.625,4.56 -2.625,32.025 v 30.495 l 9.825,26.055 c 5.4,14.325 10.8,27.54 12,29.355 1.185,1.83 4.335,3.675 7.05,4.14 7.05,1.2 71.7,4.74 72.48,3.96 0.36,-0.36 0.645,-22.74 0.645,-49.74 0,-43.38 0.285,-49.2 2.385,-50.01 1.305,-0.495 36.73501,-0.9 78.75001,-0.9 42.81,0 76.365,-0.585 76.365,-1.32 0,-0.72 -0.99,-2.145 -2.205,-3.15 -1.215,-1.02 -3.72,-6.495 -5.55,-12.195 l -3.33,-10.365 -77.34,0.39 -77.32501,0.39 -2.505,7.845 c -5.43,16.935 -19.44,29.04 -36.285,31.35 -11.88,1.635 -29.925,-6.135 -37.275,-16.05 -1.575,-2.13 -4.425,-8.175 -6.33,-13.44 -3.72,-10.26 -4.65,-11.205 -8.73,-8.835 z m 41.595,63.705 c 13.215,1.29 25.56,2.955 27.405,3.72 3.3,1.35 3.375,1.965 3.375,23.97 0,18.78 -0.375,22.725 -2.265,23.445 -4.14,1.59 -45.99,-2.085 -48.105,-4.23 -3.6,-3.645 -17.385,-41.985 -16.44,-45.735 1.08,-4.32 2.955,-4.38 36.03,-1.17 z m 289.78501,-64.335 c -0.555,0.555 -1.005,2.445 -1.005,4.185 0,3.27 -3.27,10.44 -8.1,17.7 l -2.745,4.125 h 55.995 l -0.45,-9.375 -0.45,-9.375 -12,-4.035 c -11.415,-3.825 -28.83,-5.625 -31.245,-3.225 z m -209.50501,98.76 v 59.25 h 253.50001 v -118.5 H 282.00002 Z"
           style="fill:#ececec;stroke-width:1.5" />
        <path
           id="path3549"
           fill="#010101"
           d="m 581.23206,785.70564 c -1.095,2.1 -1.5,13.2 -1.194,32.7 l 0.462,29.55 12.375,34.35 c 6.8055,18.75 12.375,36 12.375,38.25 0,2.4 -1.224,4.65 -3,5.85 -2.277,1.35 -3,3.45 -3,8.55 v 6.75 h 222.69 c 169.44002,0 223.62004,-0.45 226.60504,-1.8 2.16,-0.9 4.86,-3.6 5.985,-5.7 1.125,-2.25 6.48,-19.65 11.895,-38.85 l 9.825,-34.65 v -33.15 c 0,-36.15 -0.735,-39.9 -8.565,-43.2 -2.85,-1.2 -14.505,-1.5 -36.435,-1.35 l -32.25002,0.45 -0.525,3.75 c -0.285,2.1 -2.385,7.8 -4.65,12.9 -4.47,9.75 -13.035,18.15 -23.43,22.65 -7.485,3.3 -26.28,3.3 -33.645,0.15 -13.11,-5.55 -25.35,-20.85 -27.765,-34.5 l -0.99,-5.7 -87.21002,0.45 -87.195,0.3 -1.065,6.3 c -2.325,13.5 -12.66,26.25 -26.58,32.4 -8.1555,3.6 -23.46899,4.2 -32.08499,1.35 -13.63051,-4.8 -27.03001,-20.1 -29.32201,-33.45 l -1.113,-6.6 -30.2655,-0.45 c -29.2485,-0.3 -30.321,-0.3 -31.9215,2.7 z m 85.71,73.05 c 1.596,1.95 2.058,9.3 2.058,33.15 0,28.5 -0.1935,30.75 -2.9115,32.7 -2.211,1.65 -8.379,2.1 -25.6425,2.1 -19.83,0 -23.037,-0.3 -25.131,-2.55 -2.781,-3.15 -22.065,-55.05 -22.065,-59.4 0,-1.65 1.1175,-4.2 2.4825,-5.85 2.2635,-2.4 5.4285,-2.7 35.8155,-2.7 29.178,0 33.591,0.3 35.394,2.55 z m 76.572,0 c 1.545,1.35 2.715,4.5 2.7,7.05 -0.06,6.6 -15.75,58.05 -18.18,59.55 -1.125,0.75 -11.55,1.35 -23.1765,1.35 -28.18049,0 -26.70299,1.65 -27.33749,-31.2 -0.5205,-27 0.1125,-33.45 3.6465,-36.9 3.549,-3.6 58.38749,-3.45 62.34749,0.15 z m 76.5,0 c 1.5,1.35 2.73,3.75 2.73,5.4 0,5.25 -15.285,57.3 -17.625,60 -2.07,2.25 -5.55,2.55 -30.105,2.55 -37.32,0 -37.245,0.15 -28.68,-29.7 7.395,-25.8 10.665,-35.4 13.095,-38.1 2.025,-2.4 5.475,-2.7 30.06,-2.7 23.745,0 28.17,0.45 30.525,2.55 z m 77.10002,1.2 c 2.31,3.45 2.025,5.1 -5.985,33.3 -5.16,18.3 -9.375,30.45 -10.935,31.65 -1.8,1.35 -10.335,1.8 -29.88002,1.8 -30.315,0 -32.07,-0.45 -32.07,-9.3 0,-6 13.035,-53.25 15.915,-57.75 2.115,-3.3 2.715,-3.45 31.33502,-3.45 h 29.19 z m 75.33,-1.95 c 0.99,1.05 1.8,4.05 1.8,6.9 0,7.65 -14.7,57.75 -17.58,60 -1.785,1.35 -10.305,1.8 -29.955,1.8 -25.455,0 -27.675,-0.15 -30.465,-3 -1.65,-1.65 -3,-3.6 -3,-4.5 0,-3.6 15.495,-56.55 17.43,-59.55 2.1,-3.3 2.715,-3.45 31.065,-3.45 20.49,0 29.43,0.6 30.705,1.8 z m 75.57002,0.75 c 4.02,3.6 3.465,8.4 -4.155,35.4 -7.02,24.75 -8.775,29.4 -11.715,31.5 -0.9,0.6 -14.085,1.05 -29.28,1.05 -23.62502,0 -28.02002,-0.3 -30.37502,-2.4 -1.5,-1.35 -2.745,-4.05 -2.745,-5.85 0,-4.65 14.85,-54.9 17.415,-58.8 2.115,-3.3 2.76,-3.45 30.13502,-3.45 23.925,0 28.365,0.45 30.72,2.55 z m -369.63003,-107.4 c -7.605,2.4 -16.11751,9.9 -19.10251,16.8 -2.6895,6.3 -2.661,22.05 0.051,27.15 2.517,4.8 10.61551,12.75 15.87751,15.45 5.2425,2.7 20.75399,2.4 26.24999,-0.45 5.9385,-3.15 13.6785,-11.4 15.6585,-16.65 2.235,-6 1.98,-19.65 -0.48,-25.5 -2.985,-6.9 -11.07,-13.8 -19.356,-16.65 -8.48399,-2.85 -10.23749,-2.85 -18.89849,-0.15 z m 263.82001,0.6 c -22.305,7.8 -28.305,35.7 -11.22,52.2 11.175,10.65 28.29,12 40.125,2.85 9.9,-7.5 12.18,-11.7 12.825,-23.25 0.435,-7.5 -0.075,-11.55 -1.995,-15.3 -7.875,-15.6 -23.595,-22.05 -39.735,-16.5 z"
           style="fill:#ececec;stroke-width:1.5" />
      </g>
      <text
         xml:space="preserve"
         transform="matrix(7.5000002,0,0,-7.5000002,-253.09091,1450.7273)"
         id="text483"
         style="font-size:64px;line-height:0;font-family:'Noto Sans CJK SC';-inkscape-font-specification:'Noto Sans CJK SC';text-align:center;letter-spacing:0px;word-spacing:0px;white-space:pre;shape-inside:url(#rect485);display:inline"><tspan
           x="110.82708"
           y="42.161797"
           id="tspan2"><tspan
             style="font-size:37.3333px;font-family:'TeX Gyre Schola Math';-inkscape-font-specification:'TeX Gyre Schola Math';fill:#ff0000"
             id="tspan1">λ</tspan></tspan></text>
    </g>
  </g>
</svg>
